<?xml version="1.0" encoding="utf-8"?>
<!-- Generator: Adobe Illustrator 16.0.0, SVG Export Plug-In . SVG Version: 6.00 Build 0)  -->
<!DOCTYPE svg PUBLIC "-//W3C//DTD SVG 1.1//EN" "http://www.w3.org/Graphics/SVG/1.1/DTD/svg11.dtd">
<svg version="1.1" id="Layer_1" xmlns="http://www.w3.org/2000/svg" xmlns:xlink="http://www.w3.org/1999/xlink" x="0px" y="0px"
	 width="251.332px" height="60px" viewBox="0 0 251.332 60" enable-background="new 0 0 251.332 60" xml:space="preserve">
<path fill="#FFFFFF" d="M161.979,11.253c-9.237,0-16.726,7.486-16.726,16.726c0,9.236,7.488,16.726,16.726,16.726
	c9.238,0,16.726-7.489,16.726-16.726C178.705,18.74,171.218,11.253,161.979,11.253z M161.979,32.263
	c-2.364,0-4.283-1.918-4.283-4.283c0-2.367,1.919-4.284,4.283-4.284c2.365,0,4.283,1.917,4.283,4.284
	C166.263,30.344,164.345,32.263,161.979,32.263z"/>
<path fill="#FFFFFF" d="M16.726,11.253c-1.483,0-2.914,0.21-4.283,0.574V0H0v27.979c0,9.236,7.488,16.726,16.726,16.726
	s16.726-7.489,16.726-16.726C33.452,18.74,25.963,11.253,16.726,11.253z M16.726,32.263c-2.365,0-4.283-1.918-4.283-4.283
	c0-2.367,1.918-4.284,4.283-4.284c2.366,0,4.284,1.917,4.284,4.284C21.009,30.344,19.091,32.263,16.726,32.263z"/>
<path fill="#FFFFFF" d="M125.666,11.253c-1.483,0-2.914,0.21-4.283,0.574V0H108.94v27.979c0,9.236,7.488,16.726,16.726,16.726
	c9.238,0,16.726-7.489,16.726-16.726C142.392,18.74,134.904,11.253,125.666,11.253z M125.666,32.263
	c-2.365,0-4.283-1.918-4.283-4.283c0-2.367,1.918-4.284,4.283-4.284s4.283,1.917,4.283,4.284
	C129.949,30.344,128.031,32.263,125.666,32.263z"/>
<path fill="#FFFFFF" d="M53.039,11.253c-9.237,0-16.726,7.486-16.726,16.726c0,9.236,7.488,16.726,16.726,16.726
	c3.977,0,7.624-1.395,10.495-3.711h6.231V27.979C69.765,18.74,62.277,11.253,53.039,11.253z M53.039,32.263
	c-2.365,0-4.283-1.918-4.283-4.283c0-2.367,1.918-4.284,4.283-4.284c2.366,0,4.284,1.917,4.284,4.284
	C57.323,30.344,55.405,32.263,53.039,32.263z"/>
<path fill="#FFFFFF" d="M89.353,11.253c-9.237,0-16.726,7.486-16.726,16.726v16.726h12.442V44.13v-16.15
	c0-2.367,1.918-4.284,4.283-4.284c2.366,0,4.284,1.917,4.284,4.284v16.15v0.575h12.442V27.979
	C106.079,18.74,98.59,11.253,89.353,11.253z"/>
<path fill="#FFFFFF" d="M198.293,11.253c-9.237,0-16.726,7.486-16.726,16.726v16.726h12.442V44.13v-16.15
	c0-2.367,1.919-4.284,4.283-4.284c2.365,0,4.283,1.917,4.283,4.284v16.15v0.575h12.442V27.979
	C215.019,18.74,207.531,11.253,198.293,11.253z"/>
<path fill="#FFFFFF" d="M251.332,27.979c0-9.238-7.487-16.726-16.726-16.726c-9.237,0-16.726,7.488-16.726,16.726
	c0,9.237,7.488,16.726,16.726,16.726c1.271,0,2.502-0.153,3.692-0.422c-0.296,0.84-0.674,1.595-1.184,2.213
	c-1.218,1.47-2.94,2.202-5.171,2.202c-1.657,0-3.294-0.441-4.905-1.325v11.27c2.495,0.815,4.561,1.227,6.197,1.227
	c5.37,0,9.729-1.841,13.075-5.52c3.348-3.679,5.021-8.469,5.021-14.368V29.112c0-0.255-0.011-0.496-0.019-0.741
	C251.316,28.241,251.332,28.111,251.332,27.979z M234.606,32.263c-2.364,0-4.283-1.918-4.283-4.283c0-2.365,1.919-4.284,4.283-4.284
	c2.365,0,4.284,1.918,4.284,4.284C238.891,30.344,236.972,32.263,234.606,32.263z"/>
</svg>
